<svg width="80" height="80" viewBox="0 0 80 80" fill="none" xmlns="http://www.w3.org/2000/svg">
<rect width="80" height="80" rx="40" fill="#AE1414"/>
<mask id="mask0_1_1023" style="mask-type:alpha" maskUnits="userSpaceOnUse" x="0" y="0" width="80" height="80">
<rect width="80" height="80" fill="#D9D9D9"/>
</mask>
<g mask="url(#mask0_1_1023)">
<path d="M40 43.4068L28.076 55.3308C27.6299 55.7769 27.0621 56 26.3726 56C25.6831 56 25.1153 55.7769 24.6692 55.3308C24.2231 54.8847 24 54.3169 24 53.6274C24 52.9379 24.2231 52.3701 24.6692 51.924L36.5932 40L24.6692 28.076C24.2231 27.6299 24 27.0621 24 26.3726C24 25.6831 24.2231 25.1153 24.6692 24.6692C25.1153 24.2231 25.6831 24 26.3726 24C27.0621 24 27.6299 24.2231 28.076 24.6692L40 36.5932L51.924 24.6692C52.3701 24.2231 52.9379 24 53.6274 24C54.3169 24 54.8847 24.2231 55.3308 24.6692C55.7769 25.1153 56 25.6831 56 26.3726C56 27.0621 55.7769 27.6299 55.3308 28.076L43.4068 40L55.3308 51.924C55.7769 52.3701 56 52.9379 56 53.6274C56 54.3169 55.7769 54.8847 55.3308 55.3308C54.8847 55.7769 54.3169 56 53.6274 56C52.9379 56 52.3701 55.7769 51.924 55.3308L40 43.4068Z" fill="white"/>
</g>
</svg>
