<svg width="28" height="28" viewBox="0 0 28 28" fill="none" xmlns="http://www.w3.org/2000/svg">
<path d="M6.00713 11.2125C9.04797 11.2125 11.5131 8.70249 11.5131 5.60625C11.5131 2.51 9.04797 0 6.00713 0C2.9663 0 0.501221 2.51 0.501221 5.60625C0.501221 8.70249 2.9663 11.2125 6.00713 11.2125Z" fill="#094F0C"/>
<path fill-rule="evenodd" clip-rule="evenodd" d="M20.5687 2.55614C16.5625 2.62448 13.3866 6.03783 13.3866 10.119V13.1184H10.3201C6.28514 13.1184 3.01343 16.4497 3.01343 20.5582C3.01343 24.6667 6.28514 27.9981 10.3201 27.9981H20.6838C24.7245 27.9981 28.002 24.6628 28.002 20.5465V9.99599C28.002 5.84451 24.6631 2.48584 20.5687 2.55614V2.55614Z" fill="#094F0C"/>
</svg>
