<svg width="66" height="66" viewBox="0 0 66 66" fill="none" xmlns="http://www.w3.org/2000/svg" class="overlay-img">
      <rect width="66" height="66" rx="33" fill="#C2F291"></rect>
      <path
        d="M20.6654 29.5204C24.9187 29.5204 28.3666 26.078 28.3666 21.8316C28.3666 17.5852 24.9187 14.1429 20.6654 14.1429C16.4122 14.1429 12.9643 17.5852 12.9643 21.8316C12.9643 26.078 16.4122 29.5204 20.6654 29.5204Z"
        fill="#094F0C"></path>
      <path fill-rule="evenodd" clip-rule="evenodd"
        d="M41.0324 17.6503C35.4293 17.7437 30.9851 22.4243 30.9851 28.0224V32.1347H26.6954C21.0517 32.1347 16.4733 36.7017 16.4733 42.3404C16.4733 47.975 21.0477 52.546 26.6954 52.546H41.191C46.8428 52.546 51.4253 47.9709 51.4253 42.3282V27.856C51.4253 22.1605 46.7534 17.557 41.0283 17.6544L41.0324 17.6503Z"
        fill="#094F0C"></path>
</svg>
