<svg width="98" height="106" viewBox="0 0 98 106" fill="none" xmlns="http://www.w3.org/2000/svg">
<rect x="0.600449" y="29.8571" width="75.4286" height="75.4286" rx="9.14286" fill="#E6E1C0"/>
<path d="M59.2632 21.6719L58.4905 21.6647C57.3348 21.6535 56.7457 20.2732 57.5343 19.4271L58.0616 18.8617C58.4573 18.4368 58.5342 17.8055 58.2498 17.3004L57.8719 16.6267C57.3067 15.6192 58.207 14.4164 59.333 14.6748L60.0859 14.8474C60.6507 14.978 61.2347 14.7263 61.5309 14.227L61.9247 13.5617C62.5153 12.5654 64.0056 12.7416 64.3412 13.8486L64.5658 14.5879C64.7337 15.1424 65.2433 15.5239 65.8226 15.5287L66.5953 15.5359C67.751 15.5471 68.3401 16.9274 67.5515 17.7735L67.0242 18.3389C66.6285 18.7638 66.5516 19.3951 66.8361 19.9002L67.2139 20.5739C67.7791 21.5814 66.8788 22.7842 65.7528 22.5258L65 22.3531C64.4351 22.2226 63.8511 22.4743 63.555 22.9736L63.1611 23.6389C62.5705 24.6352 61.0802 24.459 60.7447 23.352L60.52 22.6127C60.3521 22.0581 59.8426 21.6767 59.2632 21.6719Z" fill="#E6E1C0"/>
<path d="M90.2521 22.4951L91.1552 21.8346C92.5066 20.8472 94.3897 21.9334 94.2095 23.5944L94.0887 24.7047C93.9986 25.5385 94.4578 26.3351 95.2269 26.673L96.2509 27.125C97.7824 27.8008 97.7824 29.9709 96.2509 30.6468L95.2269 31.0988C94.4578 31.4367 93.9986 32.2332 94.0887 33.067L94.2095 34.1773C94.3897 35.8406 92.5066 36.9267 91.1552 35.9371L90.2521 35.2766C89.5753 34.7807 88.6524 34.7807 87.9756 35.2766L87.0725 35.9371C85.7211 36.9245 83.838 35.8384 84.0182 34.1773L84.139 33.067C84.2291 32.2332 83.7698 31.4367 83.0008 31.0988L81.9768 30.6468C80.4452 29.9709 80.4452 27.8008 81.9768 27.125L83.0008 26.673C83.7698 26.3351 84.2291 25.5385 84.139 24.7047L84.0182 23.5944C83.838 21.9312 85.7211 20.845 87.0725 21.8346L87.9756 22.4951C88.6524 22.991 89.5753 22.991 90.2521 22.4951Z" fill="#2F991E"/>
<path d="M86.5267 5.39132L87.2983 5.43274C88.4524 5.49519 88.9797 6.90019 88.1544 7.71055L87.6025 8.25204C87.1884 8.65898 87.0836 9.28621 87.3454 9.80344L87.693 10.4932C88.213 11.5248 87.2602 12.6865 86.1468 12.3784L85.4023 12.1726C84.8439 12.0171 84.2493 12.2426 83.9313 12.7284L83.5083 13.3756C82.8742 14.3447 81.3931 14.1026 81.107 12.9818L80.9153 12.2333C80.7721 11.6719 80.28 11.2682 79.7014 11.2377L78.9299 11.1963C77.7757 11.1338 77.2484 9.72883 78.0737 8.91847L78.6256 8.37698C79.0397 7.97004 79.1445 7.34282 78.8828 6.82558L78.5352 6.13579C78.0152 5.1042 78.9679 3.94253 80.0813 4.25057L80.8258 4.45644C81.3843 4.6119 81.9788 4.38637 82.2969 3.90063L82.7199 3.25343C83.354 2.28429 84.835 2.52645 85.1212 3.6472L85.3128 4.39572C85.456 4.95717 85.9481 5.36079 86.5267 5.39132Z" fill="#C2F291"/>
<path fill-rule="evenodd" clip-rule="evenodd" d="M38.7928 54.5144C39.5846 54.7904 40.0006 55.6502 39.722 56.4348L36.8374 64.5594H45.9378C46.7772 64.5594 47.4576 65.2337 47.4576 66.0654C47.4576 66.8972 46.7772 67.5714 45.9378 67.5714H34.6916C34.1987 67.5714 33.7364 67.3345 33.4514 66.9359C33.1665 66.5372 33.0944 66.0264 33.258 65.5656L36.8548 55.4352C37.1334 54.6506 38.001 54.2383 38.7928 54.5144Z" fill="#094F0C"/>
<circle cx="21.7433" cy="54.4286" r="4.57143" fill="#094F0C"/>
<circle cx="55.4576" cy="54.4286" r="4.57143" fill="#094F0C"/>
<g clip-path="url(#clip0_1_992)">
<rect x="14.01" y="76.7143" width="48.6096" height="16.5715" rx="8.28573" fill="#094F0C"/>
<path d="M15.1149 76.7143H26.1625V82.2381C26.1625 83.4584 25.1733 84.4476 23.953 84.4476H17.3244C16.1041 84.4476 15.1149 83.4584 15.1149 82.2381V76.7143Z" fill="#F8F7EE"/>
<path d="M27.2673 76.7143H38.3149V82.2381C38.3149 83.4584 37.3257 84.4476 36.1054 84.4476H29.4768C28.2565 84.4476 27.2673 83.4584 27.2673 82.2381V76.7143Z" fill="#F8F7EE"/>
<path d="M39.4197 76.7143H50.4673V82.2381C50.4673 83.4584 49.4781 84.4476 48.2578 84.4476H41.6292C40.4089 84.4476 39.4197 83.4584 39.4197 82.2381V76.7143Z" fill="#F8F7EE"/>
<path d="M51.5721 76.7143H62.6197V82.2381C62.6197 83.4584 61.6305 84.4476 60.4102 84.4476H53.7816C52.5613 84.4476 51.5721 83.4584 51.5721 82.2381V76.7143Z" fill="#F8F7EE"/>
<path d="M26.1623 93.2857L15.1147 93.2857L15.1147 87.7619C15.1147 86.5416 16.1039 85.5524 17.3242 85.5524L23.9528 85.5524C25.1731 85.5524 26.1623 86.5416 26.1623 87.7619L26.1623 93.2857Z" fill="#F8F7EE"/>
<path d="M38.3147 93.2857L27.2671 93.2857L27.2671 87.7619C27.2671 86.5416 28.2563 85.5524 29.4766 85.5524L36.1052 85.5524C37.3255 85.5524 38.3147 86.5416 38.3147 87.7619L38.3147 93.2857Z" fill="#F8F7EE"/>
<path d="M50.4671 93.2857L39.4195 93.2857L39.4195 87.7619C39.4195 86.5416 40.4087 85.5524 41.629 85.5524L48.2576 85.5524C49.4779 85.5524 50.4671 86.5416 50.4671 87.7619L50.4671 93.2857Z" fill="#F8F7EE"/>
<path d="M62.6195 93.2857L51.5719 93.2857L51.5719 87.7619C51.5719 86.5416 52.5611 85.5524 53.7814 85.5524L60.41 85.5524C61.6303 85.5524 62.6195 86.5416 62.6195 87.7619L62.6195 93.2857Z" fill="#F8F7EE"/>
</g>
<rect x="12.5815" y="75.2857" width="51.4667" height="19.4286" rx="9.7143" stroke="#094F0C" stroke-width="2.85714"/>
<defs>
<clipPath id="clip0_1_992">
<rect x="14.01" y="76.7143" width="48.6096" height="16.5715" rx="8.28573" fill="white"/>
</clipPath>
</defs>
</svg>
