<svg width="100" height="112" viewBox="0 0 100 112" fill="none" xmlns="http://www.w3.org/2000/svg">
<g clip-path="url(#clip0_1_961)">
<path d="M74.9504 73.5495L78.532 78.4074C83.8887 85.6787 78.0033 95.8071 68.983 94.8318L62.9591 94.1816C58.4395 93.6939 54.1214 96.1697 52.2833 100.302L49.8347 105.811C46.1775 114.057 34.4003 114.057 30.7368 105.811L28.2882 100.302C26.4501 96.1697 22.132 93.6939 17.6125 94.1816L11.5885 94.8318C2.56826 95.8071 -3.31724 85.6787 2.0395 78.4074L5.62115 73.5495C8.30897 69.9045 8.30897 64.9529 5.62115 61.3079L2.0395 56.45C-3.31724 49.1787 2.56826 39.0503 11.5885 40.0256L17.6125 40.6758C22.132 41.1635 26.4501 38.6877 28.2882 34.555L30.7368 29.0469C34.394 20.8003 46.1712 20.8003 49.8347 29.0469L52.2833 34.555C54.1214 38.6877 58.4395 41.1635 62.9591 40.6758L68.983 40.0256C78.0033 39.0503 83.8887 49.1787 78.532 56.45L74.9504 61.3079C72.2625 64.9529 72.2625 69.9045 74.9504 73.5495Z" fill="#C2F291"/>
<path d="M57.6849 57.5896L57.6801 57.5851C56.2284 56.2395 53.9469 56.3107 52.5842 57.7441L35.1661 76.0655C33.8034 77.4989 33.8755 79.7517 35.3272 81.0973L35.332 81.1018C36.7837 82.4474 39.0652 82.3762 40.4279 80.9428L57.846 62.6213C59.2087 61.188 59.1366 58.9352 57.6849 57.5896Z" fill="#094F0C"/>
<path d="M26.2978 67.1931L26.2931 67.1978C24.8852 68.588 24.8852 70.8419 26.2931 72.2321L34.4694 80.3055C35.8773 81.6957 38.1599 81.6957 39.5678 80.3055L39.5725 80.3009C40.9804 78.9107 40.9804 76.6568 39.5725 75.2666L31.3962 67.1931C29.9883 65.803 27.7057 65.803 26.2978 67.1931Z" fill="#094F0C"/>
</g>
<path d="M61.2881 20.9576L60.5039 20.9504C59.3307 20.9392 58.7327 19.5589 59.5332 18.7128L60.0685 18.1474C60.4701 17.7225 60.5481 17.0912 60.2594 16.5861L59.8759 15.9124C59.3022 14.9049 60.216 13.7021 61.359 13.9605L62.1232 14.1332C62.6966 14.2637 63.2894 14.012 63.59 13.5127L63.9899 12.8474C64.5893 11.8511 66.1021 12.0273 66.4428 13.1343L66.6708 13.8736C66.8412 14.4282 67.3585 14.8096 67.9466 14.8144L68.7309 14.8216C69.9041 14.8328 70.5021 16.2131 69.7016 17.0592L69.1663 17.6246C68.7646 18.0495 68.6866 18.6808 68.9753 19.1859L69.3588 19.8596C69.9326 20.8671 69.0187 22.0699 67.8757 21.8115L67.1115 21.6389C66.5382 21.5083 65.9453 21.76 65.6447 22.2593L65.2449 22.9246C64.6454 23.9209 63.1326 23.7447 62.792 22.6377L62.564 21.8984C62.3935 21.3439 61.8763 20.9624 61.2881 20.9576Z" fill="#E6E1C0"/>
<path d="M92.7446 21.7808L93.6614 21.1203C95.0331 20.1329 96.9447 21.2191 96.7618 22.8801L96.6391 23.9904C96.5477 24.8242 97.0138 25.6208 97.7945 25.9587L98.834 26.4107C100.389 27.0865 100.389 29.2566 98.834 29.9325L97.7945 30.3845C97.0138 30.7224 96.5477 31.5189 96.6391 32.3527L96.7618 33.463C96.9447 35.1263 95.0331 36.2124 93.6614 35.2228L92.7446 34.5624C92.0576 34.0664 91.1208 34.0664 90.4338 34.5624L89.5171 35.2228C88.1453 36.2102 86.2337 35.1241 86.4166 33.463L86.5393 32.3527C86.6308 31.5189 86.1646 30.7224 85.3839 30.3845L84.3445 29.9325C82.7898 29.2566 82.7898 27.0865 84.3445 26.4107L85.3839 25.9587C86.1646 25.6208 86.6308 24.8242 86.5393 23.9904L86.4166 22.8801C86.2337 21.2169 88.1453 20.1307 89.5171 21.1203L90.4338 21.7808C91.1208 22.2767 92.0576 22.2767 92.7446 21.7808Z" fill="#2F991E"/>
<path d="M88.9631 4.67703L89.7463 4.71845C90.9179 4.7809 91.4532 6.1859 90.6154 6.99626L90.0552 7.53774C89.6348 7.94469 89.5284 8.57191 89.7941 9.08915L90.147 9.77894C90.6748 10.8105 89.7077 11.9722 88.5775 11.6642L87.8218 11.4583C87.2549 11.3028 86.6513 11.5284 86.3285 12.0141L85.8991 12.6613C85.2554 13.6304 83.752 13.3883 83.4616 12.2675L83.267 11.519C83.1217 10.9576 82.6221 10.5539 82.0348 10.5234L81.2516 10.482C80.0801 10.4195 79.5448 9.01454 80.3825 8.20418L80.9428 7.66269C81.3631 7.25575 81.4695 6.62852 81.2038 6.11129L80.851 5.42149C80.3231 4.3899 81.2902 3.22824 82.4204 3.53628L83.1762 3.74214C83.743 3.89761 84.3466 3.67208 84.6694 3.18634L85.0988 2.53914C85.7425 1.57 87.2459 1.81215 87.5364 2.93291L87.7309 3.68143C87.8762 4.24287 88.3758 4.64649 88.9631 4.67703Z" fill="#C2F291"/>
<defs>
<clipPath id="clip0_1_961">
<rect width="89.1429" height="80.5714" fill="white" transform="translate(80.5714 22.8571) rotate(90)"/>
</clipPath>
</defs>
</svg>
